<?xml version="1.0" encoding="UTF-8"?>
<svg id="Layer_1" data-name="Layer 1" xmlns="http://www.w3.org/2000/svg" viewBox="0 0 133.41 32.13">
  <defs>
    <style>
      .cls-1 {
        fill: #1e2f54;
      }
    </style>
  </defs>
  <g>
    <polygon class="cls-1" points="8.05 18.76 1.87 7.57 0 23.79 1.87 23.79 3.02 13.35 8.05 22.35 13.08 13.35 14.23 23.79 16.1 23.79 14.23 7.57 8.05 18.76"/>
    <path class="cls-1" d="M19.3,23.79h2.1l1.96-4.63h6.22l1.97,4.63h2.1l-7.17-16.21-7.17,16.21ZM28.84,17.39h-4.73l2.36-5.56,2.37,5.56Z"/>
    <path class="cls-1" d="M44.59,17.05c.79-.38,1.41-.91,1.88-1.61.46-.7.69-1.52.69-2.46s-.23-1.78-.69-2.47c-.46-.69-1.09-1.23-1.88-1.6-.79-.38-1.68-.56-2.68-.56h-4.19v15.44h1.88v-6.18h1.88l4.3,6.18h2.32l-4.61-6.36c.39-.09.76-.22,1.11-.38ZM39.6,10h2.32c.66,0,1.25.12,1.75.35.51.24.9.57,1.19,1.02.29.44.43.98.43,1.61s-.14,1.17-.43,1.61c-.29.44-.68.78-1.19,1.02-.51.24-1.09.35-1.75.35h-2.32v-5.96Z"/>
    <rect class="cls-1" x="52.28" y="8.34" width="1.88" height="15.44"/>
    <path class="cls-1" d="M67.89,16.47c-.39-.36-.81-.66-1.27-.89-.46-.23-.89-.43-1.3-.57-.9-.31-1.61-.62-2.13-.94-.52-.32-.89-.65-1.11-1.02-.22-.36-.33-.75-.33-1.18,0-.5.19-.95.57-1.36.38-.4.99-.61,1.83-.61.6,0,1.11.12,1.53.35.42.24.78.54,1.07.9.29.37.54.74.73,1.12l1.61-.93c-.25-.54-.6-1.06-1.04-1.56-.44-.49-.97-.9-1.6-1.21-.63-.32-1.36-.47-2.19-.47s-1.64.17-2.32.52c-.68.35-1.21.82-1.59,1.42-.38.6-.57,1.29-.57,2.05,0,.71.14,1.3.41,1.79.27.48.62.89,1.05,1.22.43.33.87.6,1.35.82.47.21.9.39,1.28.52.59.21,1.14.44,1.67.69.52.26.95.59,1.27,1,.32.41.48.96.48,1.65s-.25,1.29-.75,1.74c-.5.46-1.16.68-1.98.68-.62,0-1.17-.13-1.65-.4-.49-.27-.92-.63-1.31-1.1-.39-.47-.76-1.01-1.11-1.63l-1.5,1.01c.34.68.78,1.31,1.31,1.91.54.6,1.16,1.07,1.88,1.43.71.36,1.49.54,2.33.54.62,0,1.21-.1,1.78-.31s1.07-.5,1.52-.88c.45-.38.8-.85,1.06-1.39.26-.54.39-1.15.39-1.83s-.13-1.31-.38-1.82c-.25-.51-.57-.94-.96-1.3Z"/>
    <polygon class="cls-1" points="105.51 19.84 93.82 7.57 93.82 23.79 95.69 23.79 95.69 12.29 107.38 24.56 107.38 8.34 105.51 8.34 105.51 19.84"/>
    <rect class="cls-1" x="113.12" y="8.34" width="1.87" height="15.44"/>
    <path class="cls-1" d="M131.32,23.79h2.09l-7.17-16.21-7.17,16.21h2.1l1.96-4.63h6.22l1.97,4.63ZM128.61,17.39h-4.73l2.36-5.56,2.37,5.56Z"/>
  </g>
  <g>
    <path class="cls-1" d="M81.24,7.43c-4.76,0-8.64,3.88-8.64,8.64s3.88,8.64,8.64,8.64,8.64-3.88,8.64-8.64-3.88-8.64-8.64-8.64ZM81.24,22.82c-3.73,0-6.76-3.03-6.76-6.76s3.03-6.76,6.76-6.76,6.76,3.03,6.76,6.76-3.03,6.76-6.76,6.76Z"/>
    <g>
      <path class="cls-1" d="M81.24,3.69c-3.61,0-6.85,1.56-9.12,4.04.49.38.95.81,1.37,1.27,1.92-2.11,4.68-3.44,7.75-3.44s5.83,1.33,7.75,3.44c.42-.46.87-.89,1.37-1.27-2.26-2.47-5.51-4.04-9.12-4.04Z"/>
      <path class="cls-1" d="M88.99,23.14c-1.92,2.11-4.68,3.44-7.75,3.44s-5.83-1.33-7.75-3.44c-.42.46-.87.89-1.37,1.27,2.26,2.47,5.51,4.04,9.12,4.04s6.85-1.56,9.12-4.04c-.49-.38-.95-.81-1.37-1.27Z"/>
      <path class="cls-1" d="M81.24,30.26c-4.25,0-8.06-1.88-10.66-4.85-.57.3-1.17.56-1.8.75,2.94,3.64,7.43,5.97,12.46,5.97s9.53-2.33,12.48-5.97c-.63-.19-1.24-.45-1.81-.75-2.6,2.97-6.41,4.85-10.66,4.85Z"/>
      <path class="cls-1" d="M81.24,1.87c4.25,0,8.06,1.89,10.65,4.86.57-.3,1.18-.56,1.81-.75-2.94-3.64-7.43-5.97-12.46-5.97s-9.52,2.34-12.46,5.97c.63.19,1.23.45,1.8.75,2.6-2.97,6.41-4.85,10.66-4.85Z"/>
    </g>
  </g>
</svg>